<?xml version="1.0" encoding="utf-8"?>
<!-- Generator: Adobe Illustrator 16.0.0, SVG Export Plug-In . SVG Version: 6.00 Build 0)  -->
<!DOCTYPE svg PUBLIC "-//W3C//DTD SVG 1.1//EN" "http://www.w3.org/Graphics/SVG/1.1/DTD/svg11.dtd">
<svg version="1.1" id="Layer_1" xmlns="http://www.w3.org/2000/svg" xmlns:xlink="http://www.w3.org/1999/xlink" x="0px" y="0px"
	 width="212.814px" height="119.831px" viewBox="0 0 212.814 119.831" enable-background="new 0 0 212.814 119.831"
	 xml:space="preserve">
<g>
	<path fill="#6D6D6D" d="M42.152,30.606l-0.959-1.756c0,0,52.573-28.789,52.818-28.841s0.62,0.124,0.62,0.124l77.864,15.614
		l-0.393,1.961L94.331,2.113L42.152,30.606z"/>
</g>
<rect x="5.088" y="17.964" transform="matrix(0.9907 -0.1357 0.1357 0.9907 -7.4792 14.8817)" fill="#B2B3B3" width="200.638" height="88.662"/>
<rect x="7.088" y="14.964" transform="matrix(0.9907 -0.1357 0.1357 0.9907 -7.0535 15.1254)" fill="#FFFFFF" width="200.638" height="88.662"/>
<g>
	<g>
		<path fill="#911A1D" d="M39.664,44.857c-0.589-4.163-5.157-3.84-7.797-3.466l-0.691,0.098c0.198,0.937,0.394,1.875,0.581,3.199
			c1.731,12.237-1.254,29.647,0.244,40.245c0.366,2.586,0.698,2.667,1.452,2.561c3.833-0.543,6.996-4.013,6.996-4.013
			c-0.591-1.461-0.984-3.336-1.234-5.103C37.645,67.276,40.297,49.337,39.664,44.857z"/>
		<path fill="#911A1D" d="M113.938,42.072c-0.342-2.417-2.804-3.438-2.804-3.438s-1.685,3.046-6.864,5.011
			c0.06-2.474,0.081-4.735-0.157-6.415c-0.483-3.423-5.03-2.78-6.634-2.553c0.533,1.362,0.885,2.888,1.094,4.365
			c0.275,1.947,0.283,3.931,0.224,5.925c-5.95,0.841-7.325-0.196-7.325-0.196s-0.746,0.995-0.479,2.875
			c0.18,1.275,1.266,2.217,7.553,1.328c-0.422,5.16-1.274,10.107-0.83,13.397c-1.019,2.053-2.314,3.688-3.898,3.913
			c-0.802,0.112-1.347-0.358-1.574-1.969c-0.36-2.55,0.179-6.46-0.344-10.152c-0.666-4.698-2.63-7.021-5.706-6.586
			c-3.208,0.455-5.626,3.603-7.445,7.626c-0.056-0.402-0.085-1.564-0.189-2.301c-0.541-3.826-7.072-3.245-7.072-3.245
			c0.743,1.879,1.152,3.808,1.409,5.62c0.603,4.261,0.374,9.095,0.354,13.238c-1.364,0.796-2.87,0.836-4.655-0.5
			c2.892-4.549,4.398-12.241,0.034-16.493c-2.326-2.27-4.904-2.136-6.878-0.095c-4.01,4.146-3.38,13.902,2.306,20.383
			c-0.799,1.273-1.586,2.185-2.499,2.314c-3.456,0.487-4.308-9.621-9.762-14.191c5.406-3.466,9.953-9.387,9.105-15.378
			c-1.07-7.57-10.355-12.498-24.933-10.436c-13.76,1.945-22.787,8.819-21.627,17.021c0.803,5.678,5.999,7.967,8.952,7.549
			c3.078-0.437,4.571-3.929,4.924-6.873l-0.502,0.072c-1.508,0.212-5.78,0.365-6.36-3.734c-0.652-4.604,4.163-9.081,13.274-10.37
			c10.744-1.52,17.822,2.755,18.706,9.001c0.659,4.667-2.252,9.004-6.661,10.914c-0.843-0.074-1.741-0.076-2.683,0.058
			c-2.891,0.409-4.014,1.532-3.783,3.173c0.241,1.703,1.605,2.283,4.182,1.918c0.565-0.079,1.185-0.232,1.742-0.375
			c4.511,4.252,4.077,20.213,12.244,19.06c3.441-0.488,6.434-2.964,8.526-7.11c2.692,0.234,4.396,0.143,6.519-1.105
			c0.023,0.239,0.05,0.477,0.081,0.702c0.284,2.014,1.182,2.571,2.251,2.419c2.072-0.293,4.739-3.135,4.739-3.135
			c-0.592-1.285-1.246-4.478-1.465-6.023c-0.73-5.167,2.514-14.047,5.32-14.444c0.87-0.122,1.462,1.163,1.756,3.244
			c0.589,4.161-0.256,7.839,0.333,12.001c0.409,2.887,2.164,5.172,5.306,4.727c2.858-0.403,5.276-3.025,7.069-6.186
			c1.472,3.626,4.075,5.706,7.272,5.253c2.54-0.359,6.06-4.417,5.423-8.915c-0.956,0.957-1.902,1.503-3.173,1.682
			c-1.871,0.265-3.722-1.733-4.255-5.494c-0.36-2.551-0.147-6.826,0.059-11.168C110.135,46.514,114.262,44.355,113.938,42.072z
			 M63.545,56.39c0.798-0.825,1.993-0.796,3.013,0.197c1.794,1.747,1.752,5.296-0.143,9.494
			C62.58,62.061,61.993,57.994,63.545,56.39z"/>
	</g>
	<path fill="#911A1D" d="M199.29,62.372c-0.738-0.831-1.509-0.94-1.853-0.679c0.428,1.242,1.291,6.768-2.667,9.788
		c-2.755,2.101-5.93,1.562-8.695-0.686c3.739-4.246,6.401-11.764,2.25-16.439c-2.213-2.492-5.018-2.616-7.429-0.779
		c-4.691,3.579-5.299,12.891-1.088,19.396c-0.814,0.943-1.684,1.586-2.587,1.714c-1.825,0.258-3.448-2.801-4.386-8.9
		c3.315-6.562,8.431-18.31,7.14-27.44c-0.855-6.042-3.229-7.555-5.856-7.183c-7.957,1.126-9.049,25.52-7.51,36.395
		c0.044,0.314,0.094,0.61,0.141,0.915c-0.533,0.334-1.121,0.593-1.782,0.712c-0.331,0.062-0.676,0.054-1.032-0.019
		c-0.037-0.957-0.128-1.836-0.286-2.704c-0.949-5.202-3.658-8.017-6.848-7.433c-2.591,0.474-3.457,4.006-2.995,6.541
		c0.536,2.937,2.912,5.811,6.086,7.021c-0.196,3.068-1.045,5.568-3.104,5.944c-2.857,0.521-5.424-3.765-6.372-8.968
		c2.682-6.003,6.234-15.888,4.678-24.425c-1.106-6.07-3.017-7.514-5.408-7.077c-7.241,1.322-6.252,25.954-4.793,33.958
		c0.165,0.901,0.36,1.728,0.571,2.52c-1.465,2.715-3.238,5.16-4.96,5.404c-2.073,0.293-4.066-2.712-5.888-7.385
		c6.899-3.304,7.629-6.832,7.363-8.712c-0.398-2.82-3.797-6.584-3.797-6.584c-0.662,3.997-1.868,7.522-5.28,10.402
		c-2.382-7.675-4.466-17.582-6.207-26.033c-0.066-0.471-1.793-2.555-4.2-2.214c-1.338,0.189-2.179,0.993-1.809,3.612
		c0.039,0.269,0.199,0.931,0.199,0.931c-0.395,3.479-1.817,14.635-4.231,24.562c-0.423,1.841-0.921,3.623-1.371,5.261
		c-9.065,1.489-23.664,4.376-22.276,14.179c0.636,4.497,4.216,7.618,9.898,6.815c7.624-1.078,12.854-8.461,16.109-17.754
		c3.525-0.636,6.497-1.329,8.98-2.092c2.409,8.355,5.31,13.903,9.99,13.24c3.677-0.52,6.97-4.622,9.23-9.015
		c2.353,4.411,5.738,5.863,9.065,5.254c5.116-0.934,7.199-6.069,7.628-11.247l0.865-0.158c0.965-0.177,1.846-0.537,2.644-1.006
		c1.504,6.521,4.022,9.796,8.195,9.205c2.493-0.352,4.775-2.516,6.651-5.303c4.053,3.689,9.372,3.975,13.851,0.559
		C202.027,71.958,201.504,64.866,199.29,62.372z M104.878,88.958c-2.34,0.33-4.002-0.803-4.324-3.087
		c-0.684-4.834,5.822-6.574,13.342-7.912C111.684,84.024,108.756,88.408,104.878,88.958z M120.347,72.938
		c1.648-6.192,2.618-12.833,2.852-18.894c1.323,5.976,2.493,11.837,3.77,16.996C125.085,71.721,122.857,72.376,120.347,72.938z
		 M150.771,45.52c0.729-0.133,1.027,1.122,1.233,2.255c1.01,5.536-0.692,11.637-2.368,16.01
		C148.798,54.288,149.905,45.679,150.771,45.52z M175.312,39.075c0.802-0.114,1.085,1.353,1.236,2.428
		c0.845,5.973-1.954,13.558-4.292,18.614C171.877,50.584,173.634,39.312,175.312,39.075z M182.691,59.178
		c0.861-0.658,1.998-0.565,2.829,0.369c1.521,1.713,1.069,5.107-1.541,9.103C181.084,64.847,180.855,60.578,182.691,59.178z"/>
</g>
<g>
	<g>
		<path fill="#C52127" d="M40.836,44.562c-0.582-4.115-5.115-3.793-7.734-3.422l-0.686,0.098c0.195,0.926,0.39,1.853,0.575,3.162
			c1.711,12.096-1.261,29.307,0.221,39.781c0.361,2.557,0.691,2.637,1.439,2.531c3.804-0.539,6.944-3.971,6.944-3.971
			c-0.586-1.443-0.975-3.297-1.222-5.043C38.82,66.725,41.462,48.989,40.836,44.562z"/>
		<path fill="#C52127" d="M114.536,41.769c-0.338-2.389-2.78-3.396-2.78-3.396s-1.673,3.012-6.813,4.957
			c0.061-2.445,0.083-4.682-0.152-6.342c-0.479-3.383-4.99-2.745-6.582-2.52c0.528,1.346,0.877,2.854,1.084,4.313
			c0.271,1.925,0.279,3.886,0.219,5.857c-5.905,0.835-7.269-0.19-7.269-0.19s-0.741,0.984-0.478,2.843
			c0.178,1.261,1.256,2.19,7.494,1.309c-0.422,5.101-1.27,9.992-0.83,13.244c-1.012,2.029-2.299,3.647-3.871,3.87
			c-0.796,0.112-1.336-0.354-1.561-1.945c-0.356-2.521,0.18-6.386-0.336-10.035c-0.657-4.645-2.605-6.939-5.658-6.508
			c-3.184,0.451-5.585,3.564-7.392,7.542c-0.056-0.397-0.083-1.546-0.187-2.274c-0.535-3.781-7.016-3.203-7.016-3.203
			c0.736,1.857,1.141,3.764,1.395,5.555c0.596,4.212,0.366,8.99,0.344,13.086c-1.354,0.788-2.849,0.828-4.619-0.492
			c2.872-4.497,4.371-12.103,0.043-16.304c-2.307-2.241-4.864-2.108-6.824-0.089c-3.98,4.1-3.361,13.744,2.277,20.146
			c-0.794,1.26-1.576,2.161-2.481,2.289c-3.429,0.484-4.269-9.508-9.679-14.022c5.366-3.43,9.881-9.284,9.043-15.206
			c-1.059-7.482-10.269-12.35-24.734-10.303c-13.655,1.931-22.615,8.73-21.469,16.837c0.794,5.612,5.948,7.872,8.879,7.457
			c3.055-0.433,4.538-3.886,4.889-6.796l-0.499,0.07c-1.497,0.211-5.736,0.365-6.309-3.688c-0.644-4.551,4.136-8.979,13.177-10.258
			c10.662-1.508,17.683,2.713,18.556,8.887c0.652,4.613-2.239,8.902-6.614,10.793c-0.837-0.072-1.728-0.074-2.663,0.059
			c-2.869,0.406-3.984,1.517-3.755,3.139c0.238,1.683,1.591,2.256,4.148,1.894c0.561-0.079,1.176-0.23,1.729-0.372
			c4.474,4.201,4.034,19.979,12.14,18.834c3.414-0.484,6.385-2.934,8.464-7.033c2.671,0.23,4.36,0.139,6.468-1.096
			c0.023,0.236,0.049,0.471,0.08,0.693c0.281,1.99,1.172,2.541,2.232,2.391c2.057-0.291,4.705-3.102,4.705-3.102
			c-0.587-1.271-1.235-4.426-1.451-5.953c-0.723-5.107,2.502-13.887,5.287-14.281c0.863-0.122,1.449,1.148,1.74,3.205
			c0.582,4.113-0.258,7.75,0.324,11.863c0.404,2.854,2.145,5.111,5.262,4.67c2.836-0.4,5.237-2.994,7.018-6.119
			c1.459,3.584,4.041,5.639,7.213,5.189c2.521-0.356,6.016-4.37,5.387-8.816c-0.949,0.947-1.889,1.486-3.149,1.664
			c-1.857,0.263-3.692-1.711-4.219-5.428c-0.356-2.521-0.143-6.748,0.063-11.041C110.759,46.161,114.855,44.025,114.536,41.769z
			 M64.525,55.948c0.792-0.816,1.979-0.787,2.989,0.193c1.779,1.727,1.735,5.234-0.146,9.386
			C63.564,61.555,62.984,57.535,64.525,55.948z"/>
	</g>
	<path fill="#C52127" d="M199.215,61.789c-0.731-0.821-1.496-0.929-1.838-0.67c0.424,1.228,1.277,6.689-2.651,9.677
		c-2.734,2.078-5.885,1.547-8.627-0.673c3.712-4.198,6.357-11.632,2.24-16.251c-2.193-2.463-4.977-2.584-7.37-0.767
		c-4.657,3.54-5.266,12.745-1.09,19.173c-0.809,0.934-1.671,1.568-2.568,1.695c-1.811,0.256-3.42-2.766-4.347-8.795
		c3.294-6.489,8.375-18.104,7.099-27.13c-0.845-5.972-3.2-7.466-5.807-7.097c-7.896,1.117-8.992,25.231-7.472,35.98
		c0.044,0.311,0.093,0.604,0.14,0.904c-0.529,0.331-1.112,0.586-1.769,0.705c-0.328,0.061-0.671,0.054-1.024-0.018
		c-0.037-0.946-0.126-1.815-0.283-2.673c-0.938-5.142-3.625-7.923-6.79-7.345c-2.571,0.47-3.433,3.963-2.975,6.469
		c0.529,2.902,2.886,5.742,6.034,6.938c-0.196,3.033-1.04,5.504-3.084,5.877c-2.835,0.518-5.379-3.719-6.317-8.861
		c2.664-5.936,6.195-15.708,4.654-24.146c-1.095-6-2.989-7.426-5.362-6.992c-7.186,1.311-6.218,25.659-4.774,33.57
		c0.163,0.891,0.357,1.707,0.566,2.49c-1.455,2.684-3.217,5.102-4.925,5.344c-2.057,0.291-4.033-2.678-5.838-7.297
		c6.848-3.27,7.573-6.757,7.311-8.615c-0.395-2.787-3.764-6.506-3.764-6.506c-0.659,3.951-1.858,7.438-5.245,10.285
		c-2.359-7.586-4.422-17.378-6.145-25.73c-0.065-0.465-1.778-2.524-4.167-2.187c-1.327,0.188-2.162,0.982-1.796,3.571
		c0.038,0.266,0.197,0.92,0.197,0.92c-0.394,3.439-1.812,14.469-4.213,24.283c-0.42,1.82-0.915,3.582-1.363,5.201
		c-8.996,1.477-23.482,4.338-22.111,14.027c0.629,4.445,4.18,7.529,9.818,6.732c7.565-1.07,12.76-8.371,15.994-17.559
		c3.498-0.631,6.447-1.318,8.912-2.072c2.386,8.258,5.261,13.74,9.905,13.082c3.648-0.516,6.919-4.572,9.165-8.916
		c2.331,4.359,5.689,5.793,8.991,5.189c5.077-0.926,7.147-6.004,7.575-11.123l0.858-0.156c0.958-0.176,1.832-0.531,2.624-0.996
		c1.488,6.445,3.985,9.682,8.126,9.096c2.475-0.35,4.74-2.49,6.604-5.246c4.02,3.645,9.297,3.924,13.743,0.545
		C201.926,71.263,201.41,64.253,199.215,61.789z M105.521,88.12c-2.322,0.328-3.971-0.791-4.289-3.049
		c-0.676-4.777,5.781-6.502,13.242-7.828C112.275,83.239,109.368,87.575,105.521,88.12z M120.878,72.276
		c1.639-6.121,2.604-12.688,2.84-18.678c1.31,5.906,2.468,11.699,3.73,16.799C125.58,71.069,123.37,71.72,120.878,72.276z
		 M151.08,45.156c0.725-0.132,1.02,1.108,1.224,2.229c0.998,5.472-0.694,11.503-2.359,15.827
		C149.119,53.825,150.222,45.313,151.08,45.156z M175.436,38.772c0.796-0.113,1.075,1.336,1.226,2.398
		c0.835,5.904-1.946,13.404-4.269,18.404C172.021,50.151,173.77,39.008,175.436,38.772z M182.747,58.641
		c0.854-0.651,1.982-0.561,2.807,0.363c1.509,1.692,1.059,5.048-1.534,8.999C181.148,64.245,180.925,60.025,182.747,58.641z"/>
</g>
<circle fill="#4C4C4D" cx="94.275" cy="1.979" r="1.979"/>
</svg>
